# xmcd CD database file
#
# Track frame offsets:
#	150
#	16137
#	30075
#	47017
#	60787
#	76552
#	97187
#	118342
#	131057
#	144060
#	154890
#	168640
#	177712
#	188580
#	201570
#	209707
#	221062
#	234060
#
# Disc length: 3291 seconds
#
# Revision: 1
# Processed by: cddbd v1.5.2PL0 Copyright (c) Steve Scherf et al.
# Submitted via: CDex 1.51
#
DISCID=f50cd912
DTITLE=Boris VIAN - Boris VIAN et ses interprètes
DYEAR=1997
DGENRE=Jazz
TTITLE0=Le déserteur
TTITLE1=Complainte du Progrès
TTITLE2=On n'est pas là pour se faire engueler
TTITLE3=Cinématographe
TTITLE4=Ses baisers me grisaient
TTITLE5=Bilbao Song
TTITLE6=Le tango interminable des perceurs de coffre-forts
TTITLE7=La complainte de Mackie
TTITLE8=Va t'faire cuire un oeuf, man
TTITLE9=Fais-moi mal Johnny
TTITLE10=Trent'neuf de fièvre
TTITLE11=Donne, donne, donne
TTITLE12=Rock hoquet
TTITLE13=Je n'peux pas m'empêcher
TTITLE14=Le tube
TTITLE15=La java martienne
TTITLE16=La java javanaise
TTITLE17=J'suis snob
EXTD=YEAR: 1997
EXTT0=
EXTT1=
EXTT2=
EXTT3=
EXTT4=
EXTT5=
EXTT6=
EXTT7=
EXTT8=
EXTT9=
EXTT10=
EXTT11=
EXTT12=
EXTT13=
EXTT14=
EXTT15=
EXTT16=
EXTT17=
PLAYORDER=
